<svg xmlns="http://www.w3.org/2000/svg" width="179" height="46" viewBox="0 0 179 46">
  <defs>
    <style>
      .cls-1 {
        fill: #1786f9;
        fill-rule: evenodd;
      }
    </style>
  </defs>
  <path id="Logo_copy" data-name="Logo copy" class="cls-1" d="M87,91.253a10.387,10.387,0,0,1,3.136-.59,7.55,7.55,0,0,1,2.832.59v2.324c1.1-1.159,2.788-2.7,7.254-2.587a15.9,15.9,0,0,1,7.572,2.119,9.338,9.338,0,0,0-1.8,2.02,7.955,7.955,0,0,0-1.257,2.694,8.959,8.959,0,0,0-6.025-1.471c-3.93.252-5.745,2.885-5.745,7.831v13.076a10.336,10.336,0,0,1-3.01.456A9.783,9.783,0,0,1,87,117.259V91.253Zm104.651,0a9.5,9.5,0,0,1,3.035-.543,8.568,8.568,0,0,1,2.936.543v2.324c1.1-1.159,2.918-2.587,7.384-2.587a11.622,11.622,0,0,1,4.607.9l-0.01,6.065A8.358,8.358,0,0,0,203,96.379c-4.017.647-5.374,3.11-5.374,8.056v12.824a7.085,7.085,0,0,1-2.884.568,8.859,8.859,0,0,1-3.087-.568V91.253Zm-59.4,10.519v15.487a8.388,8.388,0,0,1-3.117.514,6.366,6.366,0,0,1-2.877-.514v-2.723a11.42,11.42,0,0,1-16.8-.429,14.54,14.54,0,0,1-3.474-9.93,14.106,14.106,0,0,1,3.474-9.746,12.791,12.791,0,0,1,9.463-3.9c7.029,0,13.327,4.839,13.327,11.241m-20.163,2.405a9.088,9.088,0,0,0,1.991,6.087,6.5,6.5,0,0,0,5.145,2.375,6.826,6.826,0,0,0,5.36-2.3,9.927,9.927,0,0,0,0-12.07,6.743,6.743,0,0,0-5.3-2.321,6.584,6.584,0,0,0-5.146,2.347,8.7,8.7,0,0,0-2.045,5.878m76.62-2.405v15.487a8.391,8.391,0,0,1-3.118.514,6.389,6.389,0,0,1-2.878-.514v-2.723a11.414,11.414,0,0,1-16.791-.429,14.533,14.533,0,0,1-3.479-9.93,14.1,14.1,0,0,1,3.479-9.746,12.779,12.779,0,0,1,9.46-3.9c7.029,0,13.327,4.839,13.327,11.241m-20.165,2.405a9.1,9.1,0,0,0,1.991,6.087,6.5,6.5,0,0,0,5.146,2.375,6.833,6.833,0,0,0,5.363-2.3,9.946,9.946,0,0,0,0-12.07,6.744,6.744,0,0,0-5.307-2.321A6.579,6.579,0,0,0,170.59,98.3a8.7,8.7,0,0,0-2.048,5.878M154.461,77.551a8.714,8.714,0,0,1,2.954-.544,9.584,9.584,0,0,1,3.043.544v39.708a7.177,7.177,0,0,1-2.795.483,11.272,11.272,0,0,1-3.2-.483v-2.723a11.09,11.09,0,0,1-7.987,3.469,11.338,11.338,0,0,1-8.809-3.9,14.544,14.544,0,0,1-3.473-9.93,14.069,14.069,0,0,1,3.473-9.719,11.116,11.116,0,0,1,16.8-.189V77.551ZM140.3,104.177a9.086,9.086,0,0,0,1.988,6.087,6.5,6.5,0,0,0,5.149,2.375,6.835,6.835,0,0,0,5.359-2.3,9.95,9.95,0,0,0,0-12.07,6.748,6.748,0,0,0-5.309-2.321,6.584,6.584,0,0,0-5.145,2.347,8.7,8.7,0,0,0-2.042,5.878m70.755-23.736a3.879,3.879,0,0,1,6.632-2.726,3.705,3.705,0,0,1,1.142,2.75,3.8,3.8,0,0,1-1.142,2.78,3.659,3.659,0,0,1-2.732,1.146,3.763,3.763,0,0,1-2.761-1.146,3.834,3.834,0,0,1-1.139-2.8m6.871,10.812v26.006a7.514,7.514,0,0,1-2.936.568,8.353,8.353,0,0,1-3.032-.568V91.253a9.678,9.678,0,0,1,2.923-.49,11.02,11.02,0,0,1,3.045.49M220.1,104.07a12.96,12.96,0,0,1,4-9.586,13.782,13.782,0,0,1,23.559,9.8,13.209,13.209,0,0,1-4.006,9.8,13.641,13.641,0,0,1-9.894,3.923,13.075,13.075,0,0,1-9.735-4,13.5,13.5,0,0,1-3.927-9.93m6.1,0.107a8.809,8.809,0,0,0,2.07,6.167,8,8,0,0,0,11.191.026,9.793,9.793,0,0,0,0-12.122,7.9,7.9,0,0,0-11.137,0,8.387,8.387,0,0,0-2.124,5.929M263.05,73.418l-12.17-1.4a2.814,2.814,0,0,0-3.217,3.016l0.584,13.62a3.585,3.585,0,0,0,3.53,3.406h8.873a3.984,3.984,0,0,0,3.827-3.38l1.5-11.5a3.341,3.341,0,0,0-2.922-3.764m-2.73,5.943a3.214,3.214,0,0,0-.51,1.1,3.622,3.622,0,0,0-2.445-.6c-1.6.1-2.334,1.17-2.334,3.175v5.306a4.169,4.169,0,0,1-1.219.185,3.975,3.975,0,0,1-1.2-.185V77.788a4.194,4.194,0,0,1,1.272-.241,3.028,3.028,0,0,1,1.147.241v0.942a3.416,3.416,0,0,1,2.944-1.05,6.456,6.456,0,0,1,3.073.861,3.837,3.837,0,0,0-.728.821" transform="translate(-87 -72)"/>
</svg>
